# xmcd
#
# Track frame offsets:
#	150
#	12913
#	24751
#	39042
#	51450
#	64491
#	75190
#	86862
#	100170
#	111776
#	122526
#	136460
#	149881
#	162062
#	174186
#	185695
#	195732
#	206774
#	220155
#	231829
#	243747
#
# Disc length: 3418 seconds
#
# Revision: 1
# Processed by: cddbd v1.5.1PL2 Copyright (c) Steve Scherf et al.
# Submitted via: audiograbber 1.83.01
#
DISCID=260d5815
DTITLE=Various Artist - (IEDS10001-6) Cradle Of Country and Western Music
DYEAR=1955
DGENRE=Country
TTITLE0=Merle Travis - Sixteen Tons
TTITLE1=Tennessee Ernie Ford - Ocean Of Tears
TTITLE2=Carter Family - Wildwood Flower
TTITLE3=Hank Williams - Move It On Over
TTITLE4=Bill Haley - Yodel Your Blues Away
TTITLE5=Bob Wills - Cowboy Stomp
TTITLE6=Hank Penny - Tearstaines On Your Letter
TTITLE7=Hank Williams - You´re Gonna Change
TTITLE8=Roy Acuff - Wabash Cannonball
TTITLE9=Shorty Bates - You´re There
TTITLE10=Bill Monroe - Blue Moon Of Kentucky
TTITLE11=Dick Dyson - You Waited Too Long
TTITLE12=Roy Acuff - I Saw The Light
TTITLE13=Molly O´Day - Poor Ellen Smith
TTITLE14=Eddie Kirk - Candy Kisses
TTITLE15=Jimmy Prince - Live And let Live
TTITLE16=Andy Reynolds - Beer Bottle Mam
TTITLE17=Billy Briggs - Xit Song
TTITLE18=Bill Monroe - Rocky Road Blues
TTITLE19=Adolph Hofner - Alamo Rag
TTITLE20=Red Foley - Freight Train Boogie
EXTD=
EXTT0=
EXTT1=
EXTT2=
EXTT3=
EXTT4=
EXTT5=
EXTT6=
EXTT7=
EXTT8=
EXTT9=
EXTT10=
EXTT11=
EXTT12=
EXTT13=
EXTT14=
EXTT15=
EXTT16=
EXTT17=
EXTT18=
EXTT19=
EXTT20=
PLAYORDER=
